<?xml version="1.0" encoding="utf-8"?>
<!-- Generator: Adobe Illustrator 21.0.2, SVG Export Plug-In . SVG Version: 6.00 Build 0)  -->
<svg version="1.1" id="Layer_1" xmlns="http://www.w3.org/2000/svg" xmlns:xlink="http://www.w3.org/1999/xlink" x="0px" y="0px"
	 viewBox="0 0 2035.7 546.7" style="enable-background:new 0 0 2035.7 546.7;" xml:space="preserve">
<style type="text/css">
	.st0{fill:#929083;}
	.st1{fill:#FFFFFF;}
	.st2{fill:#F08000;}
</style>
<g>
	<path class="st0" d="M1545.9,21c0,170.7,0,340.9,0,511c42.8,0,85,0,127.8,0c0-79.4,0-158.4,0-238.6c2.1,2.3,3.3,3.6,4.5,5
		c64.8,76.7,129.7,153.4,194.5,230.2c2.2,2.6,4.4,3.8,8,3.8c50-0.2,100-0.2,150-0.3c1.4,0,2.8-0.2,5.1-0.4
		c-75.6-90.8-150.6-180.8-225.8-271.1c55.4-80,110.7-159.8,166.4-240.3c-3.4,0-5.5,0-7.7,0c-42,0.1-84,0.2-126,0
		c-5.3,0-8.3,1.7-11.2,6c-51.2,74-102.5,147.8-153.8,221.7c-1,1.4-2,2.8-3,4.3c-0.4-0.1-0.9-0.2-1.3-0.4c0-77,0-154,0-230.9
		C1630.3,21,1588.1,21,1545.9,21z M432.5,496.6c-2.1-1.9-3-2.9-4-3.7c-30.2-25.1-60.6-50.1-90.6-75.5c-5.2-4.4-9.3-4.7-15.4-2.6
		c-62.2,21-123,3.9-162.8-45.7c-23-28.7-37.3-61.6-35.5-98.5c2.7-55,29-98.2,76.6-125.9c45.3-26.3,92.8-24.4,140.7-3
		c30.5-29.1,61.6-58.7,93-88.7c-4.1-3-7.5-5.9-11.3-8.3C358.2,3.6,287.9-9.4,213.2,8.3C139.5,25.8,80.4,66,39.9,130.8
		C5.8,185.4-5,245.6,2.1,309.1c7.2,64.3,35.4,118.6,82.6,162.5c55.8,51.9,122,77.8,198.7,74.9c40.6-1.6,79.6-9.9,115.7-29.1
		C410.4,511.3,421,503.8,432.5,496.6z M599.9,21.9c-43,0-85.2,0-127.3,0c0,170.6,0,340.9,0,510.9c130.2,0,259.9,0,389.6,0
		c0-31.4,0-62.3,0-93.8c-87.6,0-174.8,0-262.4,0C599.9,299.7,599.9,160.9,599.9,21.9z M909.1,532.6c42.8,0,84.9,0,127.2,0
		c0-170.7,0-340.8,0-511.2c-42.6,0-84.9,0-127.2,0C909.1,192,909.1,362.2,909.1,532.6z M1235.7,178.8c-3.9,1.1-6.6,1.8-9.2,2.7
		c-55.5,19.3-103.2,52-149.3,87.5c-1,0.8-1.7,2.5-1.7,3.7c0.3,29.8,3.6,59.2,13.4,87.5c34,98,104.7,155.2,203.4,179.8
		c33.6,8.4,68.2,6.9,102.3,2c36.2-5.2,70.2-16.7,100.5-37.8c4.2-2.9,8.1-6.1,12.4-9.3c-1.2-1-1.8-1.6-2.4-2.1
		c-31.5-26.2-63.1-52.3-94.5-78.6c-2.9-2.5-5.2-2.8-8.8-1.5c-24.8,9.4-50.4,12.3-76.6,7.9c-32.7-5.5-60.5-20.6-82.8-44.9
		c-33.8-36.8-48.3-79.8-39.5-129.7C1207.5,221.3,1218.9,199.7,1235.7,178.8z M1509.7,52.7c-48.7-40.9-149-73.1-249.1-37.2
		c-94.1,33.7-154,98.9-178.5,196.5c1.2,0.1,1.6,0.2,1.8,0.1c1.5-1,3-2.1,4.5-3.1c27.3-19.4,55.9-36.7,86.4-50.8
		c46-21.3,93.9-34.6,144.9-35.3c32.4-0.5,64,4.5,94.8,14.9c2.4,0.8,4.3,1.5,6.7-0.7C1450.4,108.9,1479.9,81,1509.7,52.7z"/>
	<path class="st1" d="M1545.9,21c42.1,0,84.4,0,127.4,0c0,76.9,0,153.9,0,230.9c0.4,0.1,0.9,0.2,1.3,0.4c1-1.4,2-2.8,3-4.3
		c51.3-73.9,102.6-147.7,153.8-221.7c3-4.3,5.9-6,11.2-6c42,0.2,84,0,126,0c2.2,0,4.3,0,7.7,0c-55.8,80.5-111,160.3-166.4,240.3
		c75.2,90.3,150.2,180.4,225.8,271.1c-2.3,0.2-3.7,0.4-5.1,0.4c-50,0.1-100,0.1-150,0.3c-3.6,0-5.7-1.2-8-3.8
		c-64.8-76.8-129.6-153.5-194.5-230.2c-1.2-1.4-2.4-2.7-4.5-5c0,80.2,0,159.2,0,238.6c-42.8,0-85,0-127.8,0
		C1545.9,361.8,1545.9,191.7,1545.9,21z"/>
	<path class="st1" d="M432.5,496.6c-11.5,7.2-22.1,14.7-33.4,20.7c-36.1,19.2-75.1,27.6-115.7,29.1c-76.7,3-142.9-23-198.7-74.9
		C37.5,427.7,9.3,373.4,2.1,309.1C-5,245.6,5.8,185.4,39.9,130.8C80.4,66,139.5,25.8,213.2,8.3c74.7-17.7,145-4.7,210,36.5
		c3.8,2.4,7.2,5.3,11.3,8.3c-31.4,30-62.5,59.6-93,88.7c-47.9-21.4-95.4-23.3-140.7,3c-47.6,27.6-73.9,70.9-76.6,125.9
		c-1.8,36.8,12.5,69.8,35.5,98.5c39.8,49.6,100.7,66.7,162.8,45.7c6.1-2.1,10.2-1.8,15.4,2.6c30,25.4,60.4,50.4,90.6,75.5
		C429.5,493.7,430.4,494.6,432.5,496.6z"/>
	<path class="st1" d="M599.9,21.9c0,139.1,0,277.8,0,417.2c87.6,0,174.8,0,262.4,0c0,31.5,0,62.4,0,93.8c-129.7,0-259.4,0-389.6,0
		c0-170,0-340.3,0-510.9C514.7,21.9,556.9,21.9,599.9,21.9z"/>
	<path class="st1" d="M909.1,532.6c0-170.4,0-340.6,0-511.2c42.3,0,84.5,0,127.2,0c0,170.3,0,340.5,0,511.2
		C994,532.6,951.9,532.6,909.1,532.6z"/>
	<path class="st1" d="M1235.7,178.8c-16.8,20.9-28.3,42.5-32.7,67.3c-8.9,49.8,5.6,92.9,39.5,129.7c22.3,24.3,50.1,39.4,82.8,44.9
		c26.2,4.4,51.8,1.4,76.6-7.9c3.6-1.4,5.9-1,8.8,1.5c31.4,26.3,63,52.4,94.5,78.6c0.6,0.5,1.2,1.1,2.4,2.1
		c-4.3,3.2-8.3,6.4-12.4,9.3c-30.3,21.1-64.3,32.6-100.5,37.8c-34.2,4.9-68.7,6.4-102.3-2c-98.7-24.6-169.3-81.8-203.4-179.8
		c-9.8-28.2-13.2-57.7-13.4-87.5c0-1.3,0.7-3,1.7-3.7c46-35.5,93.7-68.2,149.3-87.5C1229.2,180.6,1231.9,180,1235.7,178.8z"/>
	<path class="st1" d="M1509.7,52.7c-29.8,28.2-59.2,56.2-88.6,84.3c-2.4,2.3-4.3,1.5-6.7,0.7c-30.7-10.4-62.4-15.4-94.8-14.9
		c-50.9,0.8-98.9,14-144.9,35.3c-30.5,14.1-59.1,31.4-86.4,50.8c-1.5,1.1-3,2.1-4.5,3.1c-0.2,0.1-0.6,0-1.8-0.1
		c24.5-97.6,84.4-162.8,178.5-196.5C1360.6-20.3,1461,11.8,1509.7,52.7z"/>
	<path class="st2" d="M1348,168.9c58.6,0.1,106.1,47.6,106.2,106.2c0,59-47.8,106.5-107,106.4c-58.4-0.1-105.9-47.9-105.9-106.5
		C1241.3,216.2,1288.9,168.8,1348,168.9z M1384,273.8c0-19.4-16.4-35.3-36.5-35.3c-20.4,0-37,16-36.9,35.5
		c0.1,19.3,16.8,35.2,36.8,35.2C1367.5,309.1,1384,293.1,1384,273.8z"/>
</g>
</svg>
